# xmcd
#
# Track frame offsets: 
#        183
#        12090
#        24925
#        37483
#        50210
#        62363
#        76433
#        88410
#        101675
#        113218
#        127238
#        141270
#        155130
#        165645
#        176150
#        189655
#
# Disc length: 2678 seconds
#
# Revision: 7
# Processed by: cddbd v1.5.2PL0 Copyright (c) Steve Scherf et al.
# Submitted via: ExactAudioCopyFreeDBPlugin 1.0
#
DISCID=ea0a7410
DTITLE=Otis Rush - The_Blues - Collection-Otis_Rush_I Can't_Quit_Yuo_Ba
DTITLE=by
DYEAR=1995
DGENRE=Blues
TTITLE0=All Your Love
TTITLE1=Three Times A Fool
TTITLE2=She's A Good 'un
TTITLE3=It Takes Time
TTITLE4=Double Trouble
TTITLE5=My Love Will Never Die
TTITLE6=My Baby Is A Good 'un
TTITLE7=Checking On My Baby
TTITLE8=Jump Sister Bessie
TTITLE9=I Can't Quit You Baby
TTITLE10=If You Were Mine
TTITLE11=Groaning The Blues
TTITLE12=Keep On Loving Me Baby
TTITLE13=Sit Down Baby
TTITLE14=Love That Woman
TTITLE15=Violent Love
EXTD=
EXTT0=
EXTT1=
EXTT2=
EXTT3=
EXTT4=
EXTT5=
EXTT6=
EXTT7=
EXTT8=
EXTT9=
EXTT10=
EXTT11=
EXTT12=
EXTT13=
EXTT14=
EXTT15=
PLAYORDER=
